<svg id="Layer_1" data-name="Layer 1" xmlns="http://www.w3.org/2000/svg" viewBox="0 0 410.56 259.84"><defs><style>.cls-1{font-size:82px;font-family:KozMinPro-Heavy-90ms-RKSJ-H, Kozuka Mincho Pro;}.cls-1,.cls-4,.cls-5{fill:#221e1f;}.cls-2{fill:#f68722;}.cls-3{fill:none;stroke:#f68722;stroke-miterlimit:10;stroke-width:4px;}.cls-4{font-size:14px;}.cls-4,.cls-5{font-family:CopperplateGothic-Light, Copperplate Gothic Light;}.cls-5{font-size:12px;}</style></defs><title>vision-logo</title><text class="cls-1" transform="translate(0 237.45)">明進文房具</text><path class="cls-2" d="M105.29,219.67,101.9,284.4c-.28,5.4-.58,10.76-.8,16.22a80.6,80.6,0,0,1-2.48,16.11,41.78,41.78,0,0,1-6.9,14.72,25.25,25.25,0,0,1-5.9,5.59,17.58,17.58,0,0,1-7.49,3,17.32,17.32,0,0,0,7.31-3.21,24.83,24.83,0,0,0,5.59-5.71,40.9,40.9,0,0,0,6.2-14.65,80,80,0,0,0,1.83-15.89c.06-2.68,0-5.35-.15-8.05l-.43-8.09-3.39-64.73Z" transform="translate(-53.46 -96.05)"/><circle class="cls-3" cx="46.83" cy="91.48" r="32.08"/><polygon class="cls-2" points="41.83 59.4 46.83 0 51.83 59.4 41.83 59.4"/><text class="cls-4" transform="translate(31.45 86.69) rotate(-53.51)">V</text><text class="cls-4" transform="matrix(0.84, -0.55, 0.55, 0.84, 37.04, 79.76)">i</text><text class="cls-4" transform="translate(39.14 77.74) rotate(-14.09)">s</text><text class="cls-4" transform="translate(46.84 76.12) rotate(4.85)">i</text><text class="cls-4" transform="translate(49.72 75.55) rotate(26.88)">o</text><text class="cls-4" transform="translate(58.23 79.63) rotate(58.52)">n</text><text class="cls-4" transform="translate(62.54 87.45) rotate(79.48)"> </text><text class="cls-5" transform="matrix(0.01, 1, -1, 0.01, 21.1, 87.34)">S</text><text class="cls-5" transform="translate(21.86 98.31) rotate(67.39)">t</text><text class="cls-5" transform="translate(24.81 105.22) rotate(49.95)">a</text><text class="cls-5" transform="matrix(0.86, 0.5, -0.5, 0.86, 31.03, 112.02)">t</text><text class="cls-5" transform="translate(37.96 115.65) rotate(16.9)">i</text><text class="cls-5" transform="translate(42.31 117.19) rotate(0.06)">o</text><text class="cls-5" transform="matrix(0.91, -0.41, 0.41, 0.91, 53.55, 116.65)">n</text><text class="cls-5" transform="translate(62.79 111.96) rotate(-45.85)">e</text><text class="cls-5" transform="translate(68.9 105.22) rotate(-66.66)">r</text><text class="cls-5" transform="translate(72.24 96.59) rotate(-85.91)">y</text><text class="cls-5" transform="translate(72.44 88.87) rotate(-99.29)"> </text><text x="-53.46" y="-96.05"></text></svg>